<svg width="68" height="74" fill="none" xmlns="http://www.w3.org/2000/svg"><g filter="url(#filter0_d)" fill-rule="evenodd" clip-rule="evenodd"><path d="M58 6H10v48h18.355l5.959 6 5.958-6H58V6z" fill="#000"/><path d="M36.974 30.824a2.99 2.99 0 01-.19.01H33.1v.847h3.743c.032 0 .247-.003.296-.007.764-.068 1.112-.697 1.112-1.258 0-.567-.361-1.174-1.052-1.242-.137-.013-.246-.013-.302-.013l-.01.075v-.075h-2.435a1.35 1.35 0 01-.271-.022.357.357 0 01-.265-.358.37.37 0 01.27-.358c.06-.019.122-.019.256-.019h3.532v-.84h-3.591c-.153 0-.262.006-.358.018a1.185 1.185 0 00-1.044 1.199c0 .508.321 1.103 1.031 1.205.128.02.309.016.387.016h2.382c.044 0 .15.003.175.006.267.038.361.237.361.411a.406.406 0 01-.343.405zM29.998 30.824c-.028.003-.144.01-.19.01h-3.685v.847h3.744c.03 0 .246-.003.296-.007.763-.068 1.112-.697 1.112-1.258 0-.567-.362-1.174-1.056-1.242-.137-.013-.246-.013-.302-.013l-.01.075v-.075h-2.435a1.35 1.35 0 01-.271-.022.357.357 0 01-.265-.358.37.37 0 01.27-.358c.06-.019.122-.019.256-.019h3.532v-.84H27.41c-.152 0-.261.006-.358.018a1.184 1.184 0 00-1.043 1.199c0 .508.32 1.103 1.03 1.205.128.02.31.016.387.016h2.383c.046 0 .152.003.174.006.268.038.361.237.361.411a.405.405 0 01-.345.405zM24.198 27.544h-.925v4.158h.925v-4.158zM21.224 31.702v-4.158h-.928v3.1l-3.084-3.1H16.02v4.158h.925v-3.117l3.108 3.117h1.171zM51.055 27.544v3.1l-3.086-3.1h-1.193v4.158h.928v-3.117l3.105 3.117h1.171v-4.158h-.925zM43.493 30.173h-2.09l1.047-1.67 1.043 1.67zm-1.544-2.629l-2.614 4.158h1.125l.464-.74h3.05l.463.74h1.121l-2.613-4.158h-.996zM21.171 25.184c1.869-5.42 7.027-9.06 12.832-9.06 5.809 0 10.967 3.64 12.832 9.06l.019.043h4.086v-.486l-.059-.006-1.641-.19c-1.047-.121-1.271-.58-1.554-1.162l-.069-.14c-2.457-5.198-7.802-8.555-13.614-8.555-5.812 0-11.153 3.357-13.608 8.555l-.068.14c-.283.58-.508 1.04-1.554 1.162l-1.642.19-.059.006v.486h4.087l.012-.043zM46.9 34.023h-.046l-.016.043c-1.868 5.42-7.023 9.06-12.832 9.06-5.808 0-10.963-3.643-12.832-9.063l-.015-.043h-4.087v.486l.06.006 1.638.19c1.05.121 1.27.58 1.554 1.162l.068.14c2.455 5.198 7.796 8.559 13.608 8.559h.003c5.812 0 11.154-3.358 13.608-8.553l.068-.14c.284-.58.508-1.04 1.554-1.162 0 0 1.54-.177 1.642-.19l.06-.006v-.486h-.066c-.408-.003-3.623-.003-3.968-.003z" fill="#fff"/></g><defs><filter id="filter0_d" x="0" y="0" width="68" height="74" filterUnits="userSpaceOnUse" color-interpolation-filters="sRGB"><feFlood flood-opacity="0" result="BackgroundImageFix"/><feColorMatrix in="SourceAlpha" values="0 0 0 0 0 0 0 0 0 0 0 0 0 0 0 0 0 0 127 0"/><feOffset dy="4"/><feGaussianBlur stdDeviation="5"/><feColorMatrix values="0 0 0 0 0 0 0 0 0 0 0 0 0 0 0 0 0 0 0.4 0"/><feBlend in2="BackgroundImageFix" result="effect1_dropShadow"/><feBlend in="SourceGraphic" in2="effect1_dropShadow" result="shape"/></filter></defs></svg>